# Blender v2.93.6 OBJ File: ''
# www.blender.org
mtllib pont.mtl
o Cube
v 1.000000 1.964985 -0.192925
v 1.000000 0.025443 -1.000001
v 1.000000 1.709029 -5.695265
v 1.000000 0.025443 0.999999
v -1.000000 1.964985 -0.192925
v -1.000000 0.025443 -1.000001
v -1.000000 1.709029 -5.695265
v -1.000000 0.025443 0.999999
v 1.000518 0.755086 -1.567351
v -1.000000 0.992880 1.956984
v 1.000000 0.992880 1.956984
v -0.999482 0.755086 -1.567351
v 1.000000 0.636850 2.573522
v 1.000000 0.025443 2.573522
v -1.000000 0.025443 2.573522
v -1.000000 0.636850 2.573522
v -1.000000 1.709029 -2.969492
v 1.000000 1.709029 -2.969492
v 1.000000 1.080805 -2.969492
v -1.000000 1.080805 -2.969492
v -1.000000 2.246798 -1.558123
v 1.000000 2.246798 -1.558123
v -1.000000 2.246798 -2.969492
v 1.000000 2.246798 -2.969492
v 1.000000 1.080805 -5.695265
v -1.000000 1.080805 -5.695265
v -1.000000 2.246798 -4.576453
v 1.000000 2.246798 -4.576453
v -1.000000 1.709029 -6.980300
v -1.000000 1.080805 -6.980300
v 1.000000 1.709029 -6.980300
v 1.000000 1.080805 -6.980300
v -1.000000 1.211748 -8.092245
v -1.000000 0.839137 -7.596396
v 1.000000 1.211748 -8.092245
v 1.000000 0.839137 -7.596396
v -0.911759 0.020662 -10.064485
v -0.911759 0.024701 -8.372276
v 1.088241 0.020662 -10.064485
v 1.088241 0.024701 -8.372276
vt 0.506920 0.000000
vt 0.625000 0.250000
vt 0.506920 0.250000
vt 0.625000 0.500000
vt 0.506920 0.500000
vt 0.506920 0.500000
vt 0.625000 0.500000
vt 0.506920 0.750000
vt 0.625000 0.500000
vt 0.875000 0.500000
vt 0.506920 1.000000
vt 0.125000 0.500000
vt 0.375000 0.500000
vt 0.375000 0.750000
vt 0.125000 0.750000
vt 0.506920 0.500000
vt 0.625000 0.500000
vt 0.875000 0.500000
vt 0.375000 0.250000
vt 0.375000 0.000000
vt 0.375000 0.750000
vt 0.125000 0.750000
vt 0.506920 0.750000
vt 0.506920 1.000000
vt 0.375000 1.000000
vt 0.375000 0.000000
vt 0.506920 0.000000
vt 0.625000 0.250000
vt 0.625000 0.250000
vt 0.625000 0.250000
vt 0.625000 0.250000
vt 0.506920 0.250000
vt 0.506920 0.500000
vt 0.625000 0.500000
vt 0.625000 0.500000
vt 0.875000 0.500000
vt 0.625000 0.250000
vt 0.625000 0.500000
vt 0.506920 0.250000
vt 0.875000 0.500000
vt 0.506920 0.250000
vt 0.506920 0.250000
vt 0.506920 0.500000
vt 0.625000 0.250000
vt 0.625000 0.250000
vt 0.625000 0.500000
vt 0.625000 0.500000
vt 0.625000 0.250000
vt 0.506920 0.250000
vt 0.506920 0.500000
vn -1.0000 -0.0003 -0.0001
vn 1.0000 0.0000 0.0000
vn 0.0000 0.9112 0.4120
vn 0.0000 -1.0000 0.0000
vn 1.0000 0.0003 0.0001
vn 0.0000 0.9794 0.2022
vn 0.0000 -0.6138 -0.7894
vn 1.0000 -0.0003 0.0001
vn -1.0000 0.0003 -0.0001
vn 0.0000 0.0000 1.0000
vn 0.0000 0.8660 0.5001
vn -1.0000 0.0000 0.0000
vn -1.0000 -0.0004 0.0001
vn 0.0000 -0.9741 -0.2263
vn 1.0000 0.0004 -0.0001
vn 0.0000 1.0000 0.0000
vn 0.0000 0.9013 -0.4332
vn 0.0000 -0.9309 0.3652
vn 0.0000 0.8560 -0.5170
vn 0.0000 0.9129 -0.4083
vn 0.0000 -1.0000 0.0024
vn -0.9974 -0.0713 -0.0120
vn 0.0000 -0.6898 0.7240
vn 0.9974 0.0713 0.0120
usemtl Material
s off
f 10/1/1 5/2/1 12/3/1
f 3/4/2 25/5/2 32/6/2 31/7/2
f 11/8/3 1/9/3 5/10/3 10/11/3
f 6/12/4 2/13/4 4/14/4 8/15/4
f 11/8/5 9/16/5 1/9/5
f 5/10/6 1/9/6 22/17/6 21/18/6
f 6/19/7 12/3/7 9/16/7 2/13/7
f 2/13/8 9/16/8 11/8/8 4/14/8
f 8/20/9 10/1/9 12/3/9 6/19/9
f 8/15/4 4/14/4 14/21/4 15/22/4
f 14/21/10 13/23/10 16/24/10 15/25/10
f 11/8/11 10/11/11 16/24/11 13/23/11
f 4/14/2 11/8/2 13/23/2 14/21/2
f 10/1/12 8/20/12 15/26/12 16/27/12
f 17/28/12 23/29/12 27/30/12 7/31/12
f 12/3/13 5/2/13 17/28/13 20/32/13
f 9/16/14 12/3/14 20/32/14 19/33/14
f 1/9/15 9/16/15 19/33/15 18/34/15
f 21/18/16 22/17/16 24/35/16 23/36/16
f 1/9/2 18/34/2 24/35/2 22/17/2
f 18/34/2 19/33/2 25/5/2 3/4/2
f 17/28/12 5/2/12 21/37/12 23/29/12
f 3/4/17 7/31/17 27/30/17 28/38/17
f 20/32/12 17/28/12 7/31/12 26/39/12
f 23/36/16 24/35/16 28/38/16 27/40/16
f 24/35/2 18/34/2 3/4/2 28/38/2
f 19/33/4 20/32/4 26/39/4 25/5/4
f 32/6/18 30/41/18 34/42/18 36/43/18
f 7/31/16 3/4/16 31/7/16 29/44/16
f 26/39/12 7/31/12 29/44/12 30/41/12
f 25/5/4 26/39/4 30/41/4 32/6/4
f 33/45/19 35/46/19 39/47/19 37/48/19
f 31/7/2 32/6/2 36/43/2 35/46/2
f 29/44/20 31/7/20 35/46/20 33/45/20
f 30/41/12 29/44/12 33/45/12 34/42/12
f 38/49/21 37/48/21 39/47/21 40/50/21
f 34/42/22 33/45/22 37/48/22 38/49/22
f 36/43/23 34/42/23 38/49/23 40/50/23
f 35/46/24 36/43/24 40/50/24 39/47/24
